<svg width="20" height="24" viewBox="0 0 20 24" fill="none" xmlns="http://www.w3.org/2000/svg">
<path d="M3.5472 17.1429C2.7255 17.1428 0 17.8647 0 24.0001H2.72955C5.17845 22.1955 5.9961 19.669 6.00015 17.1429C5.451 17.1427 4.3689 17.143 3.5472 17.1429Z" fill="white"/>
<path d="M3.61915 0.682944C2.16629 1.52255 1.33301 6.03077 1.33301 6.03077C1.33301 6.03077 13.7463 6.34749 16.0337 6.03077C18.8715 5.63784 20.28 1.62698 19.9539 0.051452C13.5697 0.0471161 5.25257 -0.261008 3.61915 0.682944Z" fill="white"/>
<path d="M4.33344 9.00285C0.333342 9.94345 0 14.9673 0 14.9673C0 14.9673 6.00015 15.2813 10.3336 14.9673C12.3336 13.3974 14.0003 11.8274 14.0003 9.00285C13.0003 9.00309 4.98027 8.85075 4.33344 9.00285Z" fill="white"/>
</svg>
