<svg width="135" height="38" viewBox="0 0 135 38" fill="none" xmlns="http://www.w3.org/2000/svg">
<path fill-rule="evenodd" clip-rule="evenodd" d="M108.919 9.36355C107.351 9.65964 103.566 10.6071 100.961 12.0284C97.7063 13.8049 96.8021 14.5156 94.0894 17.7134C93.5464 18.3535 92.823 19.8453 92.6427 20.7335C92.6223 20.8339 92.6011 20.9352 92.5796 21.038C92.365 22.0646 92.1164 23.2534 92.281 25.3526C92.3411 26.537 93.0401 29.0834 95.3549 29.794C98.2483 30.6823 101.504 29.4387 101.504 29.4387L102.227 29.0834C102.106 29.3202 101.865 29.8295 101.865 29.9716C101.865 30.1493 107.291 30.1493 107.833 29.9716C108.267 29.8295 113.68 18.424 116.333 12.739C116.152 12.5614 114.886 12.5614 113.688 12.5614C112.49 12.5614 111.359 12.5614 111.45 12.3837C110.606 11.3178 108.919 9.22142 108.919 9.36355ZM98.5036 26.0436C102.224 24.1338 107.539 18.2309 108.425 17.0156C108.543 16.8419 108.815 16.4253 108.957 16.1475C109.12 15.8269 107.33 16.4119 107.148 16.5173C104.107 17.7098 102.751 18.2413 101.67 19.113C100.8 19.8142 100.107 20.7354 98.858 22.3976C97.7635 24.051 97.476 25.1407 97.6178 25.6963C97.6285 25.7174 97.6388 25.739 97.6491 25.7607C97.7513 25.9756 97.8586 26.2012 98.4881 26.0436L98.5036 26.0436Z" fill="#836AE4"/>
<path d="M50.5812 20.054L44.3322 33.4618L51.4738 33.2854L57.5443 19.8776L64.686 19.7012L66.8285 15.1143H59.5082L62.0078 9.29254L69.3281 9.11613L71.4706 4.17642C62.4839 4.11761 44.7736 4 44.4636 4C42.8567 4.35284 42.9039 4.35284 41.1184 5.58776C39.6901 6.5757 39.9282 8.46926 40.2257 9.29254C40.5114 10.4216 42.9634 13.2914 44.1537 14.5851L48.6172 11.586L46.1176 8.76329L55.7589 9.11613L52.7237 15.1143H47.0104L44.8678 19.8776L50.5812 20.054Z" fill="#836AE4"/>
<path d="M64.3336 27.1231L74.1177 6.00875H80.522L73.9399 20.2609C72.8725 22.7243 70.5955 27.8973 70.0262 28.8826C69.457 29.8679 70.7378 30.2316 71.4494 30.2902L125.707 30.6421L123.572 35.3929C107.087 35.4515 73.6553 35.5336 71.8052 35.3929C69.4926 35.2169 65.9347 34.3371 65.0452 32.7536C64.354 31.5231 63.7648 29.4105 64.3336 27.1231Z" fill="#836AE4"/>
<path fill-rule="evenodd" clip-rule="evenodd" d="M77.4485 27.9112C81.2091 31.151 87.2864 30.1338 90.9566 26.0017C94.4118 21.4052 94.4118 15.883 90.8463 12.3597C86.752 9.29198 81.2298 10.1827 77.3382 14.2692C74.2825 18.555 73.6878 24.6714 77.4485 27.9112ZM81.0715 23.7843C82.7014 25.1885 85.4928 24.6205 87.3061 22.5156C89.1195 20.4107 89.2683 17.566 87.6383 16.1618C86.0084 14.7576 83.217 15.3256 81.4037 17.4305C79.5903 19.5354 79.4415 22.3801 81.0715 23.7843Z" fill="#836AE4"/>
<path d="M121.878 12.0292L125.585 4.66958H131.94L128.409 12.0292H134.411L132.117 16.7604H125.938L121.701 25.1714H128.056L125.585 29.9026C125.409 29.9026 119.94 30.2184 118.524 30.0778C116.759 29.9026 116.582 29.3769 115.523 28.3255C114.676 27.4844 115.052 25.7555 115.346 24.9962L119.583 16.5852H114.993L117.465 12.0292H121.878Z" fill="#836AE4"/>
<path d="M18.5292 25.9412C14.4358 25.9412 11.1174 22.6228 11.1174 18.5294C11.1174 14.436 14.4358 11.1177 18.5292 11.1177C22.6226 11.1177 25.941 14.436 25.941 18.5294C25.941 22.6228 22.6226 25.9412 18.5292 25.9412Z" fill="#836AE4" fill-opacity="0.6"/>
<path d="M4.23015 21.5247C2.10566 21.8925 0.649441 23.9072 1.46496 25.8679C2.60353 28.6052 4.41996 31.044 6.77483 32.9498C10.1421 35.6747 14.3893 37.1308 18.7525 37.0561C23.1157 36.9814 27.3086 35.3806 30.577 32.5418C32.8626 30.5567 34.5913 28.057 35.6319 25.2824C36.3772 23.2949 34.8502 21.3313 32.7139 21.0366C30.5777 20.7419 28.6597 22.2684 27.6045 24.1156C27.0326 25.1169 26.29 26.0253 25.4005 26.7979C23.5253 28.4267 21.1196 29.345 18.6162 29.388C16.1128 29.4308 13.676 28.5955 11.744 27.0319C10.8275 26.2902 10.0532 25.4079 9.44595 24.4268C8.32577 22.6168 6.35463 21.1569 4.23015 21.5247Z" fill="#836AE4" fill-opacity="0.6"/>
<path d="M36.9155 20.3732C37.0102 19.6317 37.0588 18.8764 37.0588 18.11C37.0588 8.10813 28.763 0 18.5294 0C8.2959 0 0 8.10813 0 18.11C0 19.0936 0.0802324 20.0589 0.234656 21C1.08575 19.8612 2.41409 19.0483 3.84888 18.8011C5.40126 18.5335 6.81213 18.9015 8.00504 19.5894C7.93457 19.1062 7.8981 18.6123 7.8981 18.11C7.8981 12.3714 12.6579 7.71933 18.5294 7.71933C24.4009 7.71933 29.1607 12.3714 29.1607 18.11C29.1607 18.4884 29.14 18.8621 29.0997 19.2299C30.2674 18.5015 31.6645 18.0854 33.2258 18.2999C34.6682 18.498 36.0243 19.2647 36.9155 20.3732Z" fill="#216FED"/>
</svg>
