<svg width="101" height="34" viewBox="0 0 101 34" fill="none" xmlns="http://www.w3.org/2000/svg">
<path d="M65.2155 8.58862C68.0013 7.0682 72.0512 6.05458 73.7278 5.73782C73.7282 5.58578 75.5333 7.82841 76.4358 8.96873C76.2423 9.34883 81.2724 8.96873 81.6593 9.34883C78.8218 15.4305 73.0309 27.6319 72.5665 27.784C71.9862 27.974 66.1823 27.974 66.1823 27.784C66.1823 27.6319 66.4402 27.0871 66.5692 26.8337L65.7954 27.2138C65.7954 27.2138 62.313 28.5442 59.2176 27.5939C56.7413 26.8337 55.9936 24.1096 55.9293 22.8426C55.7355 20.3719 56.0768 19.0801 56.3162 17.9012C56.5091 16.951 57.283 15.3551 57.8639 14.6703C60.7658 11.2494 61.7331 10.4892 65.2155 8.58862Z" fill="#7760CF"/>
<path d="M73.1999 13.9238C72.2523 15.2239 66.5663 21.5388 62.5861 23.5818L62.5695 23.5818C61.8281 23.7675 61.7638 23.4562 61.6385 23.2103C61.4868 22.6159 61.7943 21.4502 62.9652 19.6814C65.9638 15.6925 65.9638 15.6925 71.8337 13.3908C72.0288 13.2781 73.9435 12.6522 73.7686 12.9952C73.6169 13.2923 73.3263 13.7381 73.1999 13.9238Z" fill="white"/>
<path d="M11.3196 17.1743L4.63452 31.5177L12.2745 31.329L18.7685 16.9856L26.4086 16.7969L28.7006 11.8899H20.8695L23.5436 5.66187L31.3746 5.47314L33.6667 0.188729C24.0529 0.125819 5.10668 0 4.77504 0C3.05603 0.377458 3.10651 0.377458 1.19649 1.69856C-0.33152 2.75544 -0.0768515 4.78113 0.241485 5.66187C0.547087 6.86973 3.17018 9.93972 4.44352 11.3237L9.21856 8.11534L6.54454 5.09568L16.8586 5.47314L13.6116 11.8899H7.49955L5.20753 16.9856L11.3196 17.1743Z" fill="#7760CF"/>
<path d="M26.0317 24.7367L36.4986 2.14893H43.3497L36.3083 17.3956C35.1665 20.0309 32.7305 25.5649 32.1216 26.619C31.5126 27.6731 32.8828 28.0621 33.644 28.1248L91.6878 28.5013L89.4041 33.5835C71.769 33.6463 36.0038 33.7341 34.0246 33.5835C31.5506 33.3953 27.7445 32.4541 26.7929 30.76C26.0535 29.4437 25.4232 27.1837 26.0317 24.7367Z" fill="#7760CF"/>
<path d="M54.5126 23.537C50.5863 27.9575 44.0849 29.0457 40.0619 25.5798C36.0389 22.1139 36.675 15.5707 39.944 10.9858C44.1071 6.6141 50.0146 5.66127 54.3947 8.94306C58.209 12.7122 58.209 18.6198 54.5126 23.537Z" fill="#7760CF"/>
<ellipse cx="47.4503" cy="17.0877" rx="4.16726" ry="5.38159" transform="rotate(40.7454 47.4503 17.0877)" fill="white"/>
<path d="M87.5916 8.58951L91.5573 0.716309H98.3558L94.5788 8.58951H101L98.5446 13.6509H91.935L87.4027 22.6488H94.2012L91.5573 27.7101C91.3685 27.7101 85.5184 28.048 84.0035 27.8976C82.115 27.7101 81.9262 27.1478 80.7931 26.023C79.8866 25.1232 80.2895 23.2736 80.6043 22.4613L85.1366 13.4634H80.2266L82.8704 8.58951H87.5916Z" fill="#7760CF"/>
</svg>
